<svg width="220" height="63" viewBox="0 0 220 63" fill="none" xmlns="http://www.w3.org/2000/svg">
<g clip-path="url(#clip0_81_9322)">
<path d="M150.085 54.2271C150.172 53.0983 149.853 52.1064 149.221 51.168C148.577 50.2125 148.254 49.1802 148.74 48.042L148.817 47.7829C149.102 46.7573 148.972 45.8097 148.197 45.0231C147.616 44.4311 147.457 43.752 147.627 42.9708C147.851 41.9441 147.778 40.9922 147.146 40.0717C146.599 39.2729 146.504 38.3911 146.939 37.4461C147.306 36.6528 147.546 35.7962 147.779 34.952C147.96 34.2942 147.961 33.5977 147.708 32.9575C147.502 32.4353 147.556 31.9613 147.683 31.4473C147.819 30.9052 147.894 30.3454 147.968 29.791C148.026 29.3643 147.881 28.987 147.556 28.6942C147.128 28.3105 146.98 27.8326 147.051 27.289C147.136 26.6647 147.259 26.0473 146.927 25.446C146.867 25.3413 146.902 25.1803 146.911 25.046C146.994 23.9614 146.714 22.9519 146.279 21.9693C146.03 21.4029 145.924 20.807 145.99 20.1909C146.116 18.995 146.039 17.8017 145.827 16.6299C145.598 15.3695 145.237 14.1345 144.966 12.8808C144.871 12.4472 144.81 11.991 144.837 11.5521C144.893 10.6567 145.003 9.76287 145.125 8.87161C145.273 7.79762 145.542 6.75608 146.015 5.7655C146.469 4.80717 146.89 3.83271 147.311 2.85954C147.461 2.50784 147.59 2.14412 147.681 1.77351C147.791 1.32787 147.785 0.878156 147.509 0.472938C147.143 -0.0653474 146.661 -0.165953 146.181 0.285054C145.79 0.656737 145.42 1.08109 145.158 1.54542C144.643 2.45819 144.05 3.30366 143.336 4.07562C142.838 4.61391 142.626 5.25559 142.596 5.98843C142.54 7.4126 142.208 8.74692 141.154 9.82457C140.853 10.132 140.59 10.4783 140.348 10.8326C140.103 11.1843 139.847 11.548 139.708 11.944C139.378 12.8767 139.019 13.8163 138.85 14.7854C138.627 16.0753 138.281 17.3238 137.932 18.5829C137.641 19.6285 137.145 20.4875 136.396 21.2421C135.922 21.7199 135.59 22.2864 135.383 22.9117C135.135 23.6607 134.918 24.4178 134.711 25.179C134.618 25.5253 134.553 25.8837 134.519 26.2393C134.36 27.9412 134.234 29.6461 134.057 31.3439C134.015 31.7466 134.052 32.1937 133.767 32.5587L133.645 32.4543C133.19 31.8407 133.135 31.1307 133.065 30.4058C132.903 28.7065 132.726 27.0112 132.796 25.2998C132.817 24.783 132.796 24.265 132.812 23.7482C132.826 23.3253 132.645 23.0113 132.319 22.7589C132.194 22.6637 132.065 22.5751 131.921 22.4702C131.947 22.152 131.973 21.8392 131.998 21.528C132.057 20.7683 131.951 20.0623 131.449 19.4247C131.27 19.1992 131.192 18.8421 131.195 18.5468C131.201 17.7845 131.274 17.0207 131.336 16.2595C131.384 15.6285 131.152 15.1158 130.702 14.6825C130.587 14.5737 130.438 14.4851 130.355 14.3576C130.227 14.159 130.04 13.9294 130.053 13.7228C130.092 12.9859 130.158 12.2436 130.305 11.5215C130.42 10.9523 130.684 10.414 130.85 9.85294C131.149 8.83807 131.462 7.8275 131.697 6.798C131.818 6.27176 131.551 5.90394 131.098 5.70424C130.665 5.50947 130.303 5.55634 129.956 6.0196C129.36 6.81434 128.802 7.64241 128.295 8.49197C128.071 8.86903 127.979 9.33078 127.879 9.76588C127.713 10.4961 127.535 11.2223 126.978 11.7752C126.376 12.3739 126.047 13.1026 125.834 13.8987C125.799 14.0302 125.73 14.1536 125.651 14.3443C125.275 13.3967 125.122 13.3041 124.308 13.4945C124.279 13.3658 124.268 13.2301 124.217 13.1106C123.991 12.5751 123.561 12.4919 123.155 12.9199C122.985 13.0973 122.812 13.3011 122.728 13.5253C122.414 14.3697 122.098 15.2154 121.852 16.0783C121.608 16.9439 121.485 17.8421 121.248 18.7091C120.724 20.6178 120.339 22.5667 119.498 24.3843C119.395 24.6057 119.357 24.8581 119.31 25.0997C119.066 26.4005 119.104 27.6944 119.384 28.987C119.72 30.5251 119.688 32.0714 119.442 33.6179C119.286 34.6177 118.687 35.3895 118.041 36.1292C117.018 37.2982 116.571 38.643 116.699 40.1826C116.76 40.9316 116.922 41.6434 117.231 42.3319C117.766 43.5209 117.963 44.7383 117.479 45.9989C117.398 46.2085 117.339 46.4314 117.312 46.6526C117.239 47.2111 117.217 47.7588 117.476 48.3051C117.623 48.6179 117.689 48.9936 117.691 49.3425C117.701 50.7158 117.668 52.0877 117.665 53.4607C117.664 53.7036 117.71 53.9534 117.778 54.1884C117.872 54.5293 118.075 54.8086 118.447 54.8928C118.85 54.9842 119.097 54.7264 119.305 54.4489C119.678 53.9508 119.941 53.4003 120.004 52.7814C120.12 51.6687 120.493 50.6407 120.937 49.6218C121.137 49.1576 121.219 48.6245 121.253 48.1172C121.319 47.1212 121.096 46.1496 120.884 45.1803C120.832 44.9427 120.794 44.6835 120.836 44.4487C121.046 43.293 121.497 42.2231 122.395 41.4342C123.134 40.7805 123.441 40.0421 123.314 39.1001C123.285 38.8758 123.303 38.645 123.255 38.4261C123.103 37.7483 123.193 37.0946 123.348 36.426C123.559 35.5066 123.798 34.5818 123.876 33.6463C124.006 32.0929 124.278 30.5737 124.651 29.0648C124.911 28.0177 124.915 26.9788 124.534 25.9439C124.164 24.9372 124.197 23.9171 124.555 22.8984C124.733 22.3896 124.831 21.8554 125.003 21.344C125.192 20.7775 125.324 20.1762 125.861 19.6003C125.905 19.9267 125.965 20.1373 125.956 20.3426C125.919 21.0166 125.871 21.689 125.802 22.3575C125.716 23.226 125.905 23.9709 126.692 24.4797C127.042 24.7037 127.221 25.0275 127.289 25.4247C127.358 25.8235 127.563 26.1993 127.912 26.3564C128.74 26.7309 128.879 27.4274 128.956 28.1832L128.976 28.3844C129.139 29.7293 129.381 31.0408 130.063 32.2595C130.339 32.7509 130.376 33.375 130.498 33.9427C130.58 34.3146 130.546 34.7241 130.691 35.0664C130.978 35.7467 130.93 36.4222 130.857 37.1225C130.708 38.614 131.119 39.4756 132.468 39.7374C132.801 39.8017 132.988 40.0006 133.019 40.3374C133.054 40.6717 133.099 41.0058 133.143 41.34C133.258 42.2126 133.397 43.0824 133.953 43.8152C134.278 44.2434 134.693 44.4906 135.263 44.3617C135.731 44.2542 136.119 43.7858 136.171 43.2154C136.221 42.6999 136.263 42.1791 136.233 41.6651C136.151 40.2637 136.571 39.0061 137.252 37.798C137.447 37.453 137.6 37.0557 137.655 36.6662C137.754 35.9561 137.788 35.2343 137.81 34.5158C137.85 33.2193 138.088 32.0073 139.153 31.1012L139.292 30.9508C140.249 29.6676 140.79 28.281 140.454 26.6595C140.198 25.414 140.419 24.2005 140.757 23.0005C140.823 22.7656 140.922 22.5388 141.007 22.3079C141.124 22.5845 141.124 22.8316 141.124 23.0783C141.125 23.8408 141.364 24.4892 142.034 24.9443C142.201 25.0582 142.343 25.2141 142.478 25.3669C142.81 25.7442 142.987 26.1696 142.841 26.6744C142.707 27.1507 142.571 27.626 142.423 28.0998C142.135 29.022 141.714 29.9266 141.576 30.8689C141.38 32.2057 141.447 33.5654 141.979 34.8581C142.087 35.1253 142.197 35.411 142.215 35.6943C142.251 36.3454 142.27 37.0017 142.227 37.6514C142.081 39.8419 142.691 41.7855 144.137 43.4689C144.513 43.9038 144.545 44.3615 144.406 44.9133C144.215 45.6702 144.088 46.4501 144.027 47.2274C143.96 48.0624 144.313 48.7174 145.162 49.0368L145.28 49.1579C145.28 49.582 145.285 50.0315 145.278 50.4797C145.271 51.0756 145.472 51.5898 145.933 51.9804C146.295 52.2893 146.667 52.6019 147.076 52.8435C147.495 53.0918 147.621 53.41 147.56 53.861C147.503 54.2838 147.481 54.7105 147.452 55.1375C147.429 55.4956 147.521 55.8112 147.874 55.9924C148.202 56.1601 148.442 55.9655 148.687 55.7923L148.82 55.7843L148.908 55.8785C149.309 56.2745 149.569 56.3413 149.924 56.1427C150.277 55.944 150.351 55.6543 150.222 55.1495C150.145 54.8488 150.062 54.5293 150.085 54.2271Z" fill="#11B0C8"/>
<path d="M40.3335 56.8233C40.1992 55.9898 39.8512 55.2381 39.2423 54.6125C38.5102 53.8543 38.0632 52.9779 37.9947 51.9118C37.9152 50.6876 37.1983 49.8808 36.0631 49.4513C35.6901 49.3092 35.4255 49.1172 35.2474 48.7842C35.0349 48.3868 34.7923 48.0005 34.6155 47.5884C34.3907 47.0662 33.9985 46.7147 33.4707 46.6004C32.855 46.4647 32.5836 46.0984 32.4479 45.5601C32.3972 45.3628 32.3287 45.1695 32.2984 44.9694C32.0916 43.6796 31.3716 42.7346 30.2419 42.0821C29.8814 41.8727 29.7018 41.5815 29.5318 41.2203C29.1862 40.4888 28.8709 39.7088 28.3609 39.0968C27.6341 38.2256 26.7198 37.5544 25.4283 38.0538L25.2652 38.0095C25.1091 37.6888 24.9676 37.3317 24.7703 37.0067C24.2876 36.2188 23.9723 36.1492 23.1635 36.6055L23.0526 36.6122C22.9825 36.4699 22.9072 36.3127 22.8277 36.1558C22.5509 35.6137 22.3025 35.0537 21.9874 34.533C21.7049 34.0657 21.3636 33.6417 20.6959 33.6725C20.526 33.6804 20.349 33.5248 20.0489 33.3868C20.3848 33.1583 20.5587 33.0067 20.7589 32.9102C21.3827 32.6054 21.8544 32.1623 22.0902 31.5181C22.1971 31.2281 22.3961 31.0671 22.6633 30.9864C22.9909 30.8884 23.3281 30.8013 23.6682 30.7717C24.5841 30.6911 25.1914 30.1569 25.6369 29.4535C26.0962 28.7286 26.4348 27.9341 26.5775 27.0776C26.6502 26.6346 26.7297 26.2319 27.1958 25.9624C27.4165 25.8349 27.5537 25.4978 27.6345 25.2295C27.7333 24.8886 27.7759 24.5193 27.7718 24.165C27.765 23.5489 27.9226 23.0336 28.3749 22.5744C29.2031 21.741 29.4374 20.71 29.2442 19.5784C29.0879 18.6643 28.9893 17.769 29.3362 16.8549C29.7488 15.773 29.4855 14.8106 28.5409 14.0818C28.2517 13.8589 28.1446 13.6134 28.194 13.2712C28.2241 13.071 28.2447 12.8683 28.2542 12.6658C28.2871 11.9719 28.3282 11.278 28.3323 10.5828C28.3323 10.3921 28.2636 10.1666 28.1472 10.0148C27.326 8.9477 26.6665 8.62159 25.508 9.01757C25.2693 9.09947 25.0293 9.18954 24.7828 9.22695C24.3838 9.29122 24.2426 9.16525 24.2 8.77185C24.17 8.48186 24.1658 8.18671 24.1054 7.90209C23.9846 7.3049 23.6324 7.0149 23.0058 6.98266C22.7781 6.9704 22.5438 6.98137 22.3203 7.02436C21.628 7.15721 21.033 7.04457 20.4709 6.57722C20.0761 6.24574 19.588 6.01486 19.1205 5.77603C18.3075 5.35985 17.4698 4.98946 16.6622 4.56381C16.1634 4.29811 15.6465 4.15838 15.0855 4.13839C14.8113 4.12764 14.5289 4.16526 14.2601 4.11818C13.3691 3.96125 12.6492 4.27941 11.9665 4.80157C11.2057 5.38285 10.4311 5.94908 9.63579 6.48479C8.59108 7.18946 7.46008 7.54244 6.18636 7.14389L5.9176 7.09014C5.39942 6.93042 4.93174 7.06198 4.45615 7.27932C3.68985 7.63101 3.05223 8.13296 2.50791 8.75444C2.18844 9.12097 1.86348 9.26048 1.36989 9.03906C0.931186 8.8443 0.677584 8.92491 0.469213 9.26199C-0.0296487 10.0688 -0.351976 11.4016 0.683073 12.3625C0.850385 12.5168 1.0177 12.6714 1.19467 12.8148C1.91178 13.3961 2.00883 14.1261 1.74425 14.9516C1.6292 15.3153 1.50163 15.6806 1.43312 16.0535C1.15471 17.5904 1.27701 19.0186 2.61506 20.1154C2.89457 20.3437 3.13325 20.6296 3.35677 20.914C3.75704 21.4228 4.05873 21.9637 3.87649 22.6551C3.73926 23.1757 3.68041 23.7153 3.54604 24.2349C3.43208 24.6738 3.43208 25.0696 3.69688 25.4617C3.79151 25.6012 3.8587 25.8011 3.84224 25.9624C3.79854 26.3837 3.89032 26.7636 4.07542 27.1368C4.27435 27.5353 4.2906 27.9315 4.16193 28.3743C3.9507 29.0964 4.03172 29.7998 4.55122 30.4077C4.77321 30.6668 4.97346 30.9406 5.19544 31.1997C5.52589 31.5836 5.68903 31.9903 5.53402 32.5058C5.35858 33.0884 5.45036 33.6441 5.71911 34.2037C6.28955 35.3942 6.65975 36.6561 6.66524 37.9755C6.66655 38.7234 6.73923 39.5057 6.28143 40.1998C5.89477 40.7839 6.11544 41.3729 6.51022 41.8184C7.0587 42.4385 7.31516 43.1673 7.58918 43.9085C7.71807 44.2589 7.68799 44.5571 7.48643 44.8671C6.88173 45.7998 6.8488 46.8011 7.09428 47.8536C7.26708 48.5931 7.60697 49.2509 8.01822 49.8737C8.31157 50.3178 8.53223 50.777 8.61457 51.2951C8.6833 51.7354 8.86137 52.1045 9.21795 52.397C9.33037 52.4897 9.43993 52.6455 9.45223 52.7838C9.52622 53.5164 9.70451 54.2389 9.48934 54.9906C9.26999 55.7542 9.45091 56.1596 10.1625 56.5743C10.6397 56.8521 10.8151 57.247 10.8425 57.7408C10.8632 58.1219 10.8371 58.5073 10.8564 58.8885C10.8948 59.5622 11.1045 60.1703 11.653 60.6216C11.9011 60.8256 12.1685 61.035 12.5194 60.8899C12.8771 60.745 13.0226 60.4309 13.0295 60.0738C13.0389 59.6484 13.0185 59.2187 12.9897 58.7932C12.9403 58.0512 12.9678 57.3465 13.7466 56.9275L13.848 56.8375C14.6652 56.0444 14.7502 55.2118 14.1826 54.2266C13.7659 53.5018 13.5753 52.7326 13.9481 51.9073C14.0948 51.5823 14.2171 51.2239 14.243 50.8725C14.2663 50.5287 14.2347 50.1381 14.0827 49.8376C13.7878 49.2578 13.4001 48.7208 13.0338 48.1759C12.4594 47.3222 12.1345 46.4514 12.7528 45.4793L12.8378 45.2955C13.4245 44.2473 13.4765 43.2002 12.8132 42.1627C12.6103 41.8456 12.5842 41.5413 12.8119 41.2218C13.2354 40.6339 13.1518 40.0459 12.8213 39.4444C12.6252 39.0902 12.4553 38.717 12.318 38.3384C12.0548 37.6135 12.2935 37.1731 13.175 36.8672C13.5246 37.2401 13.9016 37.663 14.2992 38.0671C14.8901 38.6656 15.625 38.8965 16.4367 38.6699C17.0482 38.4994 17.4101 38.7477 17.7076 39.188C18.0242 39.6579 18.293 40.1571 18.6179 40.6188C18.877 40.9851 19.1594 41.3463 19.4885 41.6524C19.8326 41.9759 20.1013 41.9329 20.4454 41.6079C21.0843 40.9989 21.2214 40.9879 21.8315 41.6094C22.1662 41.9544 22.5267 42.1999 23.0313 42.1412C23.4083 42.0954 23.6483 42.2498 23.7976 42.5733C24.117 43.2685 24.4598 43.9545 24.7531 44.6592C25.1207 45.5451 25.728 45.8243 26.6041 45.4619C26.7301 45.4096 26.8538 45.3492 26.9824 45.2981C27.4773 45.1022 27.528 45.0926 27.8119 45.5623C28.1615 46.1408 28.481 46.7397 28.7743 47.3489C29.1678 48.1613 29.8149 48.694 30.6883 48.8442C31.2201 48.9369 31.4998 49.1813 31.7137 49.6039C31.8248 49.8256 31.9592 50.0377 32.0703 50.2592C32.5858 51.2833 33.1699 52.239 34.3749 52.6191L34.6052 52.764C35.1989 53.1666 35.7597 53.5839 35.7994 54.3894C35.8405 55.1897 36.1749 55.9116 36.4794 56.6418C36.6878 57.1399 36.9908 57.5413 37.4818 57.799C37.8807 58.0097 38.1521 58.3238 38.3111 58.7481C38.4633 59.1479 38.647 59.5385 38.8403 59.9197C39.1103 60.4487 39.6011 60.7776 39.9453 60.6889C40.3032 60.5962 40.4923 60.211 40.4745 59.5493C40.4677 59.2593 40.3155 58.9373 40.4018 58.686C40.6229 58.0432 40.4324 57.4353 40.3335 56.8233ZM19.4163 28.1963C19.2738 28.2849 19.0926 28.3212 18.924 28.3576C18.5496 28.4433 18.159 28.4797 17.7956 28.5979C17.3844 28.7323 16.9771 28.9012 16.5988 29.1106C16.3081 29.2731 16.027 29.4892 15.8173 29.74C15.5156 30.1038 15.1606 30.3561 14.6751 30.5468C14.5104 30.4114 14.353 30.2515 14.1679 30.1294C13.3562 29.5936 12.8654 29.5549 12.217 30.0313C12.0401 30.1616 11.833 30.2489 11.4835 30.4421C11.5493 30.018 11.5671 29.7415 11.6398 29.4797C11.707 29.2435 11.844 29.0274 11.9331 28.7965C12.2074 28.0878 12.1237 27.7911 11.4628 27.3803C11.1914 27.2126 11.0885 27.0192 11.0955 26.7214C11.1065 26.2717 11.0997 25.8207 11.0968 25.3697C11.0942 24.7052 10.8239 24.2086 10.1906 23.9092C9.76555 23.7078 9.72867 23.5629 9.83296 23.1011C9.89861 22.8193 9.95351 22.5293 9.98644 22.2408C10.103 21.2689 9.60681 20.5924 8.8774 20.0165C8.75268 19.9185 8.62511 19.7319 8.62928 19.5883C8.64575 18.8997 8.41125 18.2112 8.68703 17.5198C8.86115 17.0809 8.57725 16.7292 8.27292 16.4459C7.7958 16.0056 7.73959 15.4714 7.8575 14.8942C7.95477 14.4084 8.18246 14.262 8.68022 14.329C8.81592 14.3493 8.95864 14.3518 9.08862 14.3895C10.2185 14.7237 11.1082 14.3037 11.8952 13.5466C12.0254 13.4204 12.1624 13.298 12.2899 13.1693C12.7218 12.7316 13.2552 12.5773 13.8585 12.6392C14.2478 12.6781 14.6316 12.7692 15.0198 12.7894C15.5216 12.8163 16.0235 12.7976 16.5827 12.7976C17.6795 14.7478 18.1498 14.9815 19.839 14.38C20.2447 14.7813 20.7012 15.1453 20.4037 15.8538C20.268 16.1802 20.3914 16.5278 20.6285 16.8001C20.9548 17.1774 21.2811 17.556 21.639 17.9036C21.8816 18.1411 22.1778 18.3264 22.4562 18.5399C22.2779 18.8284 22.193 18.9814 22.0928 19.1225C21.6857 19.6984 21.6047 20.101 22.0476 20.5976C22.6591 21.2808 22.3383 22.0003 22.3025 22.7185L22.2162 22.8956C21.7804 23.3763 21.336 23.8527 20.9014 24.3346C20.4711 24.8112 20.3422 25.4071 20.2434 26.0071C20.1859 26.3614 20.1655 26.7227 20.1077 27.0783C20.0317 27.5385 19.833 27.9412 19.4163 28.1963Z" fill="#11B0C8"/>
<path d="M219.116 27.7466C218.794 27.5938 218.486 27.666 218.184 27.7937C217.406 28.1226 216.618 28.4326 215.863 28.8045C215.375 29.0433 214.859 29.3092 214.492 29.6878C213.342 30.877 211.686 31.3091 210.452 32.3603L210.328 32.4192C209.223 32.8554 208.138 33.3561 207.005 33.7065C206.016 34.0113 205 34.1949 204.334 35.1212C204.318 34.8798 204.339 34.6837 204.408 34.5038C204.611 33.9737 204.518 33.485 204.223 33.0231C204.005 32.6795 203.757 32.3534 203.54 32.0084C203.436 31.8433 203.307 31.6501 203.31 31.4727C203.321 31.0312 203.121 30.7104 202.869 30.3721C202.707 30.1506 202.574 29.8514 202.566 29.5842C202.523 28.1923 202.53 26.8001 202.502 25.4097C202.488 24.7091 202.18 24.1652 201.552 23.7923C201.37 23.6835 201.166 23.4956 201.112 23.3077C200.731 21.9478 199.895 20.7276 199.832 19.2714C199.823 19.1171 199.777 18.9586 199.721 18.8138C199.268 17.6594 198.834 16.4983 198.341 15.3616C198.139 14.8916 197.823 14.4608 197.515 14.0434C197.397 13.8875 197.106 13.7011 196.972 13.748C196.774 13.8138 196.555 14.0608 196.515 14.2622C196.444 14.6287 196.486 15.0178 196.501 15.3992C196.54 16.563 196.588 17.7294 196.634 18.9133C195.886 19.0771 195.705 19.5657 195.747 20.1509C195.805 20.9336 195.898 21.712 195.989 22.4904C196.041 22.936 196.157 23.3765 196.171 23.8219C196.196 24.6983 196.18 25.5776 196.165 26.454C196.149 27.4366 196.312 28.387 196.744 29.2729C197.103 30.0163 197.327 30.7842 197.364 31.603C197.384 32.0286 197.408 32.4568 197.394 32.8825C197.382 33.3038 197.538 33.6353 197.868 33.8812C198.099 34.0517 198.362 34.179 198.744 34.4047C198.446 35.4662 198.17 36.555 197.83 37.626C197.505 38.6542 197.065 39.6407 197.365 40.7738C197.502 41.2852 197.292 41.4948 196.771 41.6705C196.447 41.7807 196.107 41.8519 195.786 41.9738C194.954 42.2917 194.106 42.5832 193.306 42.9699C192.616 43.3042 192.576 43.7322 193.064 44.3215L193.17 44.4704L193.09 44.5966C192.935 44.6906 192.776 44.7804 192.613 44.8623C191.573 45.3899 190.732 46.1496 189.99 47.0193C189.487 47.6099 189.479 48.0073 189.888 48.6099C190.363 49.3092 190.352 49.5429 189.723 50.0996C188.958 50.779 188.174 51.4383 187.387 52.0918C187.03 52.3884 186.729 52.7066 186.564 53.1496C186.509 53.2984 186.376 53.477 186.235 53.5269C185.402 53.8234 184.881 54.4287 184.475 55.1577C184.114 55.8073 183.632 56.3361 182.957 56.6786C182.592 56.8622 182.195 56.9873 181.837 57.1833C180.237 58.0598 178.923 59.2946 177.615 60.5242C177.315 60.8062 177.138 61.2317 176.964 61.6169C176.782 62.0154 176.694 62.4424 177.116 62.7846C177.471 63.0718 177.895 63.0733 178.398 62.7833L178.679 62.5901C179.611 61.8237 180.529 61.0412 181.476 60.2933C181.827 60.0154 182.222 59.7443 182.643 59.6076C183.465 59.3391 184.316 59.1471 185.166 58.9605C186.085 58.7565 186.884 58.3887 187.551 57.704C188.436 56.7912 189.374 55.9268 190.294 55.045C190.441 54.9055 190.599 54.7645 190.773 54.6626C191.368 54.3109 191.802 53.8115 192.052 53.198C192.493 52.1081 193.228 51.2222 193.989 50.3484C194.33 49.955 194.708 49.5887 195.027 49.1764C195.228 48.916 195.413 48.6116 195.493 48.2971C195.745 47.3252 196.313 46.6141 197.157 46.0718C198.328 45.3174 199.477 44.5375 200.642 43.7739C201.152 43.441 201.525 43.0048 201.802 42.4678C201.976 42.1309 202.198 41.8089 202.445 41.5176C203.154 40.6786 204.063 40.1605 205.137 39.8516C206.859 39.3563 208.083 38.2477 208.857 36.6758C209.06 36.2652 209.369 35.9873 209.742 35.7646C209.994 35.6115 210.269 35.4879 210.548 35.386C211.357 35.0879 212.045 34.6169 212.692 34.0624C213.071 33.7376 213.471 33.4169 213.911 33.1873C215.243 32.4975 216.42 31.6034 217.51 30.5967C218.145 30.0116 218.751 29.3929 219.342 28.7658C219.721 28.3668 219.612 27.9816 219.116 27.7466Z" fill="#11B0C8"/>
<path d="M107.137 39.8944C106.755 38.9977 106.414 38.0996 106.476 37.097C106.519 36.4056 106.458 35.7091 106.484 35.0165C106.505 34.4567 106.527 33.8875 106.654 33.3453C106.881 32.3842 107.178 31.4366 107.462 30.4888C107.595 30.0472 107.566 29.6285 107.273 29.2742C106.856 28.7682 106.811 28.2017 106.952 27.6166C107.128 26.8971 107.363 26.1898 107.558 25.4742C107.628 25.2179 107.707 24.9481 107.694 24.6876C107.673 24.2435 107.494 23.8324 107.044 23.6514C106.564 23.4567 106.135 23.6379 105.806 23.999C105.58 24.2475 105.344 24.5199 105.222 24.8247C105.005 25.3643 104.85 25.9321 104.708 26.4972C104.429 27.6045 104.177 28.72 103.912 29.8301L103.821 30.0838C103.281 30.8998 103.093 31.8179 102.967 32.7617C102.902 33.2514 102.637 33.5738 102.167 33.8462C101.487 34.2424 100.854 34.7456 100.288 35.2891C99.7501 35.8035 99.3197 36.4247 98.8455 37.0006C98.8591 36.6075 98.8373 36.2085 98.9072 35.8276C99.1511 34.504 99.4337 33.1858 99.6954 31.8624C99.8256 31.202 99.967 30.5389 100.052 29.8718C100.094 29.5242 100.089 29.1431 99.9877 28.8116C99.8614 28.4021 99.6065 28.0222 99.0923 27.9915C98.6028 27.9592 98.2684 28.2208 98.0324 28.617C97.9529 28.7527 97.8829 28.8963 97.8225 29.0412C97.2193 30.5058 96.6201 31.9714 95.9785 33.5353C95.7647 32.5796 95.3657 31.8854 94.2703 32.1314C93.8865 31.5071 93.7919 30.8587 93.6617 30.2239C93.5576 29.7205 93.3121 29.3017 92.9542 28.9354C92.6773 28.6521 92.3264 28.6521 91.9945 28.7716C91.6559 28.8952 91.4282 29.1327 91.4282 29.5354C91.4282 29.8697 91.3748 30.2037 91.35 30.5393C91.3087 31.0963 91.2402 31.6548 91.2376 32.2118C91.2363 32.7943 91.2719 33.381 91.3404 33.9608C91.4431 34.8279 90.9017 35.3972 90.4382 36.0872C90.2094 35.6306 89.9804 35.263 89.835 34.8643C89.7362 34.5973 89.7801 34.2847 89.7171 34.0014C89.617 33.5637 89.4661 33.1381 89.3647 32.7006C89.2496 32.1999 89.1563 31.6939 89.0685 31.1904C89.0261 30.9462 89.0384 30.6954 88.9932 30.4535C88.7738 29.2858 88.4324 28.1396 88.4282 26.9355C88.4269 26.5596 88.372 26.1717 88.2734 25.808C88.1608 25.3987 87.8497 25.1825 87.5315 25.2536C87.1244 25.3463 86.7158 25.4804 86.4964 25.8628C86.2745 26.2521 86.0674 26.6561 85.9111 27.0748C85.7464 27.5166 85.6491 27.9822 85.526 28.4386C85.441 28.758 85.2585 28.9554 84.8967 28.938C84.2344 28.9085 83.9014 29.315 83.6655 29.8372C83.4998 30.2078 83.3819 30.5997 83.1897 30.9568C82.6839 31.9056 82.5563 32.8709 82.9746 33.8816C83.1171 34.2265 83.15 34.5781 83.0172 34.9326C82.5605 36.1526 82.3411 37.46 81.6009 38.5783C81.4543 38.7997 81.3254 39.068 81.3034 39.326C81.265 39.7622 81.1609 40.3032 81.3651 40.6306C81.734 41.2119 81.804 41.7891 81.786 42.4226C81.7805 42.5555 81.7999 42.695 81.8315 42.824C81.9384 43.2374 82.2702 43.5325 82.6333 43.5514C83.0336 43.5701 83.2804 43.3689 83.4299 42.8614C83.5408 42.491 83.6739 42.1488 83.9688 41.8669C84.3117 41.5365 84.3844 41.1016 84.2156 40.6762C84.0799 40.3273 84.1826 40.0683 84.3787 39.8024C84.5269 39.6024 84.7037 39.4161 84.8203 39.2013C84.9327 38.9906 85.0519 38.7501 85.0506 38.5233C85.0438 37.7664 85.459 37.2268 85.906 36.6401C86.0624 36.7569 86.1557 36.8684 86.2749 36.9099C86.8219 37.0937 87.0164 37.5381 87.1688 38.0172C87.3839 38.7045 87.5499 39.4094 87.8187 40.0749C88.186 40.9918 88.6276 41.8792 89.0443 42.7784L89.2143 42.9889C89.442 43.2251 89.7092 43.2894 90.0287 43.1834C90.4496 43.0478 90.7019 42.7672 90.7047 42.3431C90.7073 41.4467 90.676 40.5485 90.6511 39.6508C90.6373 39.1486 90.6033 38.6452 90.5758 38.0654C91.0598 38.318 91.2503 38.6052 91.2093 39.0373C91.19 39.2374 91.2257 39.4453 91.1941 39.6426C91.0694 40.4182 91.5847 40.8439 92.1031 41.2642C92.3019 41.4239 92.5487 41.4267 92.7379 41.2547C93.2289 40.8065 93.71 40.3473 93.6155 39.5917C93.5894 39.3958 93.5839 39.1824 93.6333 38.993C93.8239 38.2668 93.7541 37.5688 93.4647 36.8841C93.3685 36.6586 93.3264 36.4426 93.4702 36.1674C93.8046 36.4656 94.1528 36.676 94.3572 36.9809C94.8385 37.6896 95.2634 38.436 95.683 39.1822C96.0148 39.7714 96.2958 40.3862 96.6179 40.9808C96.7866 41.2908 97.0362 41.5363 97.4336 41.5002C97.8368 41.4626 98.1068 41.2506 98.2192 40.8505C98.2891 40.5997 98.392 40.3581 98.4935 40.0749L98.5826 40.1715L98.6101 40.3701C98.6661 41.2882 99.1748 41.8534 100.034 42.1636C100.335 42.2709 100.628 42.3998 100.905 42.5516C102.029 43.1675 103.303 42.9379 104.105 41.9622C104.231 41.8093 104.351 41.6509 104.529 41.4241C104.604 41.765 104.664 42.0241 104.715 42.2831C104.847 42.9235 105.166 43.4616 105.643 43.9059C106.093 44.3247 106.706 44.3556 107.222 44.0134C107.675 43.7114 107.915 43.3221 107.867 42.7625C107.78 41.7642 107.528 40.8138 107.137 39.8944ZM85.2284 33.8836C85.6274 32.8433 86.0031 31.8689 86.3772 30.8929L86.5555 30.9372C86.5555 31.4499 86.4802 31.9762 86.5761 32.4714C86.6666 32.9276 86.9422 33.3507 87.1767 33.8834L85.2284 33.8836ZM103.164 38.9709C102.932 39.1587 102.758 39.4152 102.539 39.622C102.163 39.9788 101.693 39.9156 101.619 39.4446C101.549 39.0085 101.669 38.5373 101.743 38.0875C101.816 37.6471 102.002 37.3317 102.499 37.1372C102.942 36.96 103.291 36.5587 103.803 36.1666C103.918 37.2515 104.099 38.2096 103.164 38.9709Z" fill="#11B0C8"/>
<path d="M74.6854 19.1265C74.1931 19.2072 73.6778 19.2474 73.2211 19.4273C72.6728 19.642 72.1285 19.9279 71.6623 20.2822C70.2679 21.3427 68.9052 22.4459 67.541 23.5453C67.2025 23.8191 66.9076 24.156 66.4182 24.1104C65.9959 24.0715 65.6545 24.234 65.342 24.4795C64.8401 24.8714 64.3549 25.2876 63.8474 25.6741C63.6143 25.8515 63.3622 26.0178 63.0921 26.1333C62.6385 26.3293 62.164 26.4809 61.6924 26.6526C61.3757 26.1064 61.3496 25.5359 61.6594 24.9441C61.7857 24.7052 61.8926 24.4462 61.9365 24.1844C62.0667 23.4139 62.2435 22.646 61.7828 21.8917C61.6445 21.6662 61.691 21.3293 61.6662 21.0408C61.6333 20.6623 61.7198 20.23 61.5648 19.9133C61.3042 19.3858 61.4001 18.9253 61.5716 18.4328C61.6373 18.2409 61.7088 18.0502 61.7622 17.8556C61.9995 16.9979 62.0762 16.1281 61.895 15.2517C61.6963 14.2798 60.8422 13.9765 60.0304 14.5793C59.8838 14.6868 59.7384 14.794 59.6054 14.8921C58.791 14.6906 58.6346 14.7121 58.277 15.2328C58.1165 15.4665 57.9985 15.759 57.9643 16.037C57.9191 16.4355 57.9808 16.8451 57.9724 17.2503C57.9494 18.5068 58.0602 19.7886 57.8448 21.0127C57.5653 22.5992 57.1978 24.1859 56.5946 25.704C56.4137 26.1589 56.3588 26.6623 56.2464 27.1428C56.1408 27.6004 56.0639 28.0663 55.9241 28.5134C55.706 29.2194 55.4263 29.9079 55.2098 30.6167C55.1345 30.8665 55.1303 31.155 55.1633 31.4183C55.2181 31.853 55.4827 32.1645 55.9102 32.304C56.2956 32.4302 56.5766 32.2343 56.8111 31.9592C57.088 31.6303 57.3567 31.2947 57.6404 30.9686C57.7625 30.8289 57.9079 30.7093 58.0433 30.5806L58.2065 30.6704C58.1105 31.0516 58.0078 31.4342 57.9186 31.8197C57.8514 32.1015 57.761 32.3874 57.7568 32.672C57.743 33.7189 57.5921 34.7164 57.0206 35.6384C56.7821 36.0251 56.6462 36.5512 57.0522 36.8893C57.4951 37.2599 57.443 37.6638 57.362 38.1069C57.1084 39.5014 56.8506 40.8933 56.5819 42.284C56.5353 42.5256 56.4598 42.7672 56.3529 42.9887C55.9827 43.7499 55.8567 44.5672 55.6702 45.3791C55.4715 46.2517 55.8854 46.8048 56.4133 47.3538C56.7327 47.6881 57.0535 47.7229 57.3756 47.3966C57.6883 47.0813 58.0117 46.7109 58.1435 46.3067C58.4149 45.4692 58.7069 44.6478 59.0907 43.8546C59.1866 43.6531 59.24 43.4278 59.2881 43.2103C59.4758 42.3528 59.6528 41.4935 59.835 40.6356C60.0063 39.8237 60.1793 39.0128 60.3752 38.0961C61.1072 38.4317 61.4609 37.962 61.8421 37.5164C61.9271 37.4145 62.0889 37.3756 62.2534 37.2881C62.4071 37.6879 62.485 38.0544 62.6798 38.3472C62.8745 38.6383 63.1898 38.8543 63.4461 39.1082L63.6037 39.3281C64.1823 40.3766 64.8225 41.4103 64.9075 42.6372C64.9609 43.3995 65.3491 43.9446 65.9235 44.3956C66.6035 44.9285 66.9888 45.6478 67.1588 46.4452C67.3946 47.5379 67.9567 48.4519 68.6257 49.3083C68.9232 49.6893 69.0644 50.0745 69.1164 50.5337C69.159 50.9094 69.1933 51.3151 69.3635 51.6423C69.6485 52.1915 69.8665 52.735 69.913 53.3577C69.946 53.8128 70.3133 54.0839 70.7494 54.0906C71.2346 54.0959 71.472 53.8984 71.5899 53.3818C71.6103 53.296 71.6132 53.2047 71.6283 53.0705C72.318 53.0813 72.6592 52.9026 72.747 52.3846C72.8676 51.6758 72.9457 50.9563 72.662 50.2544C72.5263 49.9202 72.4152 49.5766 72.3002 49.2344C71.6257 47.2261 70.9773 45.217 70.8649 43.0746C70.8359 42.5686 70.5564 42.037 70.2698 41.5926C69.7831 40.8411 69.4155 40.0801 69.2704 39.1848C69.073 37.9738 68.5671 37.5484 67.3344 37.3472C66.8711 37.2707 66.4515 37.1309 66.1595 36.7255C65.4973 35.8063 64.816 34.9002 64.1469 33.9887C64.0523 33.8597 63.9796 33.7189 63.8975 33.5833C63.674 33.2208 63.4656 32.8489 63.2269 32.4973C62.7443 31.7818 63.0118 30.9402 63.84 30.6287C64.3553 30.4368 64.8737 30.257 65.3877 30.0638C66.8518 29.5148 67.8678 28.5833 68.2476 27.0303C68.4696 26.1298 68.9454 25.3658 69.9051 25.0116C70.0984 24.9404 70.2698 24.817 70.4576 24.7338C71.416 24.3002 72.1054 23.6022 72.5538 22.6746C72.7279 22.3163 73.0116 22.0841 73.3161 21.8317C73.9632 21.2962 74.5598 20.7016 75.1601 20.1137C75.341 19.9378 75.4576 19.7095 75.3122 19.4413C75.1776 19.1908 74.9596 19.0808 74.6854 19.1265Z" fill="#11B0C8"/>
<path d="M177.39 48.3399C177.617 48.0312 177.691 47.6688 177.58 47.3119C177.401 46.7345 177.199 46.1603 176.959 45.6031C176.566 44.6998 176.341 43.8032 176.503 42.7898C176.756 41.1951 176.396 39.6796 175.403 38.3829C174.978 37.8287 174.823 37.3038 174.916 36.6447C174.976 36.2259 174.971 35.7951 174.719 35.4019C174.143 34.5066 173.591 33.5992 172.595 33.0583C172.247 32.8704 172.26 32.4663 172.602 32.2423C172.812 32.1066 173.062 32.0355 173.282 31.9147C173.681 31.6986 174.101 31.5026 174.46 31.2315C174.907 30.8931 175.381 30.6556 175.938 30.5522C176.153 30.5118 176.36 30.4004 176.557 30.2959C177.229 29.9417 177.669 29.3737 178.053 28.7469C178.277 28.3819 178.358 27.9992 178.311 27.5843C178.281 27.316 178.277 27.0394 178.201 26.7831C178.094 26.4235 178.018 26.0032 177.775 25.7455C177.317 25.2555 177.022 24.6796 176.66 24.1388C176.441 23.8073 176.36 23.5508 176.598 23.1682C176.947 22.6071 176.81 22.1064 176.322 21.6554C175.782 21.1614 175.163 20.9385 174.426 21.1023C173.81 21.2377 173.24 21.0957 172.696 20.8246C171.841 20.3976 171.293 20.4393 170.665 21.132C170.028 21.8367 169.465 22.6086 168.873 23.3522C168.78 23.4687 168.695 23.5923 168.587 23.74C168.229 23.4178 168.257 23.03 168.211 22.6596C168.107 21.8354 168.022 21.0071 167.853 20.1964C167.753 19.7147 167.421 19.5051 167.036 19.5023C166.615 19.4971 166.226 19.7923 166.098 20.2568C166.046 20.4419 166.068 20.6487 166.061 20.8461C166.039 21.4274 166.053 22.0112 165.991 22.5897C165.875 23.7052 165.625 24.814 165.596 25.9308C165.566 27.1563 165.382 28.3414 165.116 29.5322C165.027 29.9361 165.074 30.3751 165.101 30.7964C165.136 31.3388 165.466 31.6917 165.942 31.948C166.534 32.2649 166.675 32.6583 166.422 33.2875C166.28 33.6432 166.086 33.9775 165.945 34.3346C165.702 34.9468 165.662 35.5773 165.998 36.1627C166.361 36.7977 166.372 37.4069 166.168 38.1024C166.008 38.6499 165.942 39.266 166.017 39.8281C166.114 40.5532 166.121 41.2592 166.032 41.9746C165.995 42.2644 165.96 42.5639 165.998 42.8483C166.029 43.0751 166.125 43.3341 166.282 43.4992C166.867 44.1166 167.805 43.9702 168.138 43.169C168.33 42.7034 168.408 42.1664 168.416 41.6616C168.43 40.8789 168.592 40.1635 168.92 39.4468C169.158 38.9259 169.244 38.33 169.355 37.7608C169.421 37.4173 169.402 37.0602 169.417 36.8065C169.58 36.9248 169.783 37.0617 169.979 37.2092C170.909 37.9057 171.579 38.809 172.151 39.7957C172.365 40.165 172.614 40.5341 172.922 40.828C173.58 41.4563 173.831 42.1956 173.787 43.0789C173.766 43.5005 173.769 43.9584 173.917 44.341C174.202 45.0831 174.394 45.8374 174.547 46.6133C174.69 47.3233 174.975 47.9946 175.535 48.5071C176.123 49.0461 176.925 48.9721 177.39 48.3399ZM172.052 28.8068C171.874 29.1317 171.585 29.3963 171.319 29.7157C171.157 29.6044 171.012 29.5547 170.953 29.4554C170.687 29.0072 170.37 28.6138 169.955 28.2795C169.803 28.1574 169.8 27.8608 169.715 27.6002C170.429 27.4379 170.824 27.0673 171.065 26.4796C171.475 25.4877 171.704 25.3856 173.078 25.5131C172.068 26.1801 172.076 26.9762 172.292 27.8687C172.361 28.152 172.205 28.5265 172.052 28.8068Z" fill="#11B0C8"/>
<path d="M177.593 32.1722C177.066 32.3076 176.846 32.6662 176.95 33.1789C177.07 33.7748 177.439 34.1119 178.055 34.0582C178.592 34.0113 179.029 34.1992 179.504 34.375C180.218 34.6407 180.764 35.2957 181.656 35.19C181.6 35.363 181.587 35.4797 181.53 35.5709C181.171 36.1709 181.038 36.8139 181.016 37.505C181.005 37.8193 180.848 38.1535 180.679 38.4341C180.453 38.8126 180.38 39.191 180.497 39.5964C180.588 39.9197 180.694 40.2486 180.861 40.5386C181.06 40.8835 181.071 41.1655 180.9 41.5385C180.534 42.344 180.435 43.1817 180.889 44.0098C180.961 44.1439 181.019 44.3103 181.012 44.458C180.961 45.4217 181.041 46.4243 180.793 47.3373C180.446 48.6071 180.416 49.8677 180.446 51.1468C180.46 51.7321 180.583 52.3173 180.956 52.8003C181.314 53.2621 181.759 53.2232 182.057 52.7251C182.126 52.6109 182.162 52.477 182.204 52.3478C182.405 51.7063 182.604 51.0634 182.797 50.4165C182.9 50.0728 183.032 49.7308 183.075 49.3789C183.259 47.8648 183.435 46.348 183.576 44.8299C183.654 43.987 183.791 43.1817 184.308 42.4755C184.425 42.316 184.529 42.1146 184.544 41.9252C184.593 41.2781 184.685 40.6218 184.435 39.9881C184.32 39.6983 184.334 39.4217 184.492 39.148C184.963 38.3253 185.009 37.4446 184.894 36.5318C184.84 36.1156 184.847 35.6902 184.826 35.2702L184.994 35.1506C185.232 35.2594 185.516 35.3183 185.701 35.4849C186.489 36.195 187.449 36.2676 188.41 36.1225C188.942 36.0408 189.341 36.1212 189.748 36.422C190.275 36.8123 190.879 37.014 191.542 37.0394C192.472 37.0714 192.828 36.7588 192.87 35.877C193.058 35.7442 193.257 35.6274 193.43 35.481C193.902 35.0769 193.946 34.5777 193.504 34.1332C193.287 33.9143 193.003 33.7265 192.712 33.6192C192.33 33.4782 191.916 33.4014 191.509 33.3492C191.217 33.3118 190.998 33.215 190.804 32.9936C190.427 32.5574 189.924 32.3588 189.344 32.3494C188.91 32.3427 188.474 32.3478 188.029 32.3478C187.444 31.5587 187.264 31.5024 186.174 31.6447C185.707 31.7036 185.227 31.8192 184.681 31.5856C184.793 31.2392 184.865 30.8863 185.016 30.572C185.468 29.6272 185.774 28.6377 185.963 27.6204C186.169 26.5131 186.388 25.4166 186.923 24.4043L186.964 24.2755C187.083 23.4984 187.107 22.7507 186.425 22.1641C185.882 21.6982 185.87 21.5761 186.23 20.9667C186.599 20.3439 187.001 19.7386 187.336 19.0995C187.53 18.7278 187.699 18.3129 187.743 17.9036C187.828 17.0809 187.252 16.6097 186.407 16.7412C185.652 16.8593 185.199 17.3346 184.899 17.9883C184.684 18.4567 184.451 18.9172 184.222 19.3828C183.635 20.5748 183.017 21.752 182.844 23.0983C182.782 23.5803 182.593 24.0487 182.427 24.513C182.171 25.2392 181.961 25.9748 181.975 26.7494C181.983 27.2782 181.865 27.7696 181.625 28.2447C181.302 28.889 181.215 29.5603 181.361 30.2783C181.524 31.0838 181.269 31.3697 180.449 31.3736C180.002 31.3749 179.573 31.4151 179.217 31.7092C178.903 31.9682 178.538 32.0647 178.138 32.0877C177.955 32.0983 177.769 32.1266 177.593 32.1722Z" fill="#11B0C8"/>
<path d="M52.8617 37.8378C52.0405 38.4162 51.5044 38.4218 50.6722 37.8526C50.4267 37.6849 50.1951 37.4983 49.9469 37.3371C49.5124 37.0527 49.0573 36.9585 48.6115 37.313C48.3415 37.5265 48.0672 37.5211 47.7791 37.3762C47.2952 37.1305 46.8427 37.2247 46.411 37.4929C46.0808 37.6957 45.7736 37.9373 45.4377 38.128C44.9744 38.3883 44.5451 38.1482 44.5383 37.6273C44.5354 37.4525 44.5712 37.2646 44.6437 37.1051C44.7917 36.7777 44.9673 36.4622 45.1469 36.1507C45.3731 35.7614 45.6596 35.3978 45.8408 34.9896C46.2562 34.0502 46.104 33.5859 45.2664 33.042C45.1718 32.9803 45.0758 32.9212 44.9234 32.8244C45.0426 31.9547 45.6131 31.4433 46.2162 30.948C47.0251 30.2848 47.8422 29.6298 48.621 28.933C49.057 28.5424 49.3462 28.054 49.0419 27.4446C49.4764 27.1761 49.9138 27.074 50.3841 27.0781C50.7749 27.0809 51.1658 27.0822 51.5564 27.0673C52.5436 27.0297 53.4045 26.7225 54.0105 25.9144C54.267 25.5707 54.386 25.1788 54.1697 24.7747C53.9723 24.403 53.6322 24.2338 53.2018 24.2525C52.4463 24.2845 51.6897 24.2955 50.937 24.3613C50.5956 24.392 50.32 24.3948 50.0774 24.1089C49.8115 23.7961 49.4413 23.6927 49.023 23.7183C47.9851 23.7841 47.0473 24.125 46.2536 24.7775C46.0083 24.9789 45.7655 25.3076 45.7257 25.6042C45.6285 26.3532 45.2089 26.7023 44.5029 26.827L44.1751 26.9263C42.8015 27.3115 42.3477 27.8578 42.1597 29.2269C42.0829 29.7987 42.0047 30.4148 41.7362 30.9088C41.3521 31.6068 41.1508 32.3115 41.1069 33.0858C41.0794 33.5975 40.8765 34.039 40.5202 34.4199C40.2721 34.6844 39.991 34.9408 39.8266 35.2538C39.6098 35.6631 39.4234 36.1128 39.3479 36.5664C39.2519 37.1316 39.6289 37.5005 40.2104 37.5435C40.3147 37.5514 40.4187 37.5447 40.5887 37.5447C40.4392 37.796 40.2899 37.973 40.2185 38.1785C40.0799 38.577 39.9181 38.9853 39.8826 39.3971C39.8263 40.0414 40.1388 40.3422 40.8094 40.3931C41.1299 40.4187 41.4523 40.4041 41.7744 40.4107C42.4436 40.4268 42.6533 40.6429 42.5231 41.2844C42.4052 41.8764 42.5257 42.3863 43.0263 42.7219C43.4883 43.0349 43.583 43.4429 43.5939 43.9356C43.6007 44.2484 43.6337 44.5678 43.7226 44.8673C43.7898 45.0926 43.9297 45.3183 44.0941 45.4926C44.3765 45.7959 44.7713 45.8293 45.0743 45.5543C45.336 45.3142 45.5692 45.0214 45.7407 44.7127C46.0024 44.2402 46.1767 43.7193 46.433 43.2442C46.6358 42.8713 46.873 42.5058 47.1512 42.1853C47.3938 41.9046 47.6968 41.7758 48.1287 41.9355C48.392 42.0333 48.7663 41.969 49.0474 41.8644C49.3833 41.7397 49.7028 41.5288 49.9713 41.2925C50.4388 40.8779 50.9365 40.7639 51.5549 40.8645C52.9739 41.0954 54.279 40.1773 54.5065 38.7894C54.5544 38.5035 54.4927 38.1437 54.3434 37.8982C54.0272 37.3736 53.513 37.3788 52.8617 37.8378Z" fill="#11B0C8"/>
<path d="M162.69 34.1452C162.187 33.5506 162.063 32.9816 162.402 32.2887C162.617 31.8433 162.839 31.3908 162.972 30.9183C163.303 29.7585 163.278 28.6149 162.683 27.5183C162.558 27.2887 162.499 27.0108 162.472 26.7492C162.409 26.1922 162.214 25.7289 161.792 25.3224C161.046 24.6029 160.243 24.0029 159.24 23.6579C157.861 23.1854 156.581 23.3425 155.514 24.3047C154.829 24.9236 154.299 25.7061 153.689 26.4054C153.5 26.6215 153.294 26.8431 153.053 26.9934C151.985 27.6578 151.153 28.4913 150.944 29.7693C150.821 30.5169 150.554 31.1651 150.037 31.7625C149.373 32.5301 149.32 33.6843 149.89 34.4002C150.643 35.3462 150.778 36.3906 150.625 37.5235C150.565 37.9678 150.536 38.416 150.484 38.9573C150.543 39.3597 150.561 39.8606 150.699 40.3275C150.859 40.8697 151.301 41.1543 151.79 41.0322C152.362 40.8871 152.76 41.1461 153.191 41.4108C153.536 41.6227 153.892 41.8214 154.265 41.9798C154.484 42.0739 154.639 42.173 154.754 42.3947C155.123 43.1019 155.575 43.3382 156.39 43.1841C157.015 43.0645 157.613 42.8298 158.271 42.9504C158.416 42.9772 158.603 42.9222 158.734 42.8459C159.403 42.4577 160.168 42.1556 160.7 41.6309C161.649 40.6953 162.515 39.662 163.302 38.5882C163.772 37.9465 164.12 37.1894 163.9 36.3089C163.692 35.4729 163.225 34.7802 162.69 34.1452ZM157.67 36.4297C158.011 37.1182 157.989 37.1292 157.92 37.8068C157.496 37.8472 157.051 37.8889 156.655 37.9237C156.324 37.4218 156.032 36.9721 155.735 36.5264C155.483 36.1532 155.17 35.8605 154.676 35.8835C154.315 35.8996 154.19 35.6902 154.131 35.4004C154.068 35.0928 154.016 34.7815 153.951 34.4741C153.769 33.6108 153.976 32.8552 154.651 32.27C155.31 31.698 155.575 31.0417 155.425 30.1719C155.307 29.4847 155.804 29.0751 156.4 28.7892C156.297 29.2215 156.185 29.6523 156.098 30.0872C155.92 30.9705 156.296 31.6174 157.024 32.1034C157.195 32.2174 157.383 32.3048 157.553 32.4203C157.99 32.7154 158.079 32.9652 157.912 33.4605C157.834 33.6942 157.722 33.9182 157.626 34.1478C157.306 34.9146 157.292 35.6674 157.67 36.4297Z" fill="#11B0C8"/>
<path d="M36.4729 30.4178C36.4467 29.5721 36.5949 28.7643 36.9006 27.9762C37.127 27.3936 37.2446 26.7775 36.9568 26.2018C36.6371 25.5627 36.5633 24.9241 36.6909 24.2422V23.9724C36.6551 23.4556 36.4057 23.2032 35.8752 23.1549C35.4022 23.1147 34.9675 23.2191 34.5672 23.481C34.4274 23.5736 34.2425 23.6609 34.0833 23.6514C33.2485 23.6018 32.9371 23.8286 33.0427 24.6164C33.1552 25.4701 33.0509 26.2702 32.7466 27.0619C32.6985 27.1868 32.6862 27.3238 32.6574 27.4566C32.5531 27.9412 32.6216 28.3546 33.1413 28.5844C33.4718 28.7305 33.5484 29.0177 33.4924 29.3172C33.4389 29.5992 33.3196 29.8716 33.2098 30.1401C33.0234 30.5993 32.7931 31.0421 32.6328 31.5077C32.3709 32.2743 32.4519 32.9777 33.1565 33.5091C33.432 33.7172 33.5745 33.9896 33.5594 34.3251C33.5293 34.9965 33.5278 35.6717 33.4334 36.3347C33.3703 36.7883 33.2838 37.23 33.4896 37.6557C33.6773 38.0422 33.7076 38.4356 33.6117 38.8382C33.4951 39.3322 33.6007 39.7751 33.8804 40.1846C34.134 40.5539 34.2258 40.9604 34.2135 41.4007C34.2054 41.8048 34.2122 42.2102 34.2122 42.6155H34.1931C34.1931 43.0877 34.1779 43.5615 34.1972 44.0343C34.2205 44.6061 34.3507 45.1536 34.773 45.5818C35.2404 46.0543 35.7986 45.9991 36.1565 45.449C36.2509 45.2987 36.3389 45.1229 36.3578 44.9509C36.4195 44.4182 36.5128 43.8758 36.4731 43.3457C36.3811 42.0623 36.5128 40.8331 37.1461 39.6811C37.2543 39.4881 37.2872 39.2557 37.3683 39.0448C37.7123 38.1671 37.6054 37.3255 37.1599 36.5107L37.0956 36.391C36.8707 35.9535 36.8788 35.5348 37.1531 35.1106C37.3738 34.7697 37.5397 34.3924 37.7714 34.0581C38.2966 33.3079 38.2224 32.336 37.1996 31.7496C36.6318 31.4245 36.4893 30.9869 36.4729 30.4178Z" fill="#11B0C8"/>
<path d="M33.8268 20.7212C34.3643 21.1507 34.9908 21.3065 35.6337 21.0782C36.2972 20.8433 36.6167 20.2983 36.6687 19.6126C36.7385 18.6919 36.8729 17.7898 37.0991 16.8891C37.3417 15.92 36.7385 15.3198 35.6334 15.4703C35.6925 15.1455 35.7527 14.888 35.783 14.6261C35.8791 13.8503 35.2949 13.1282 34.6013 13.206C34.0721 13.2652 33.5798 13.4558 33.2041 13.8638C32.7845 14.3202 32.6379 15.0329 32.9821 15.5458C33.2906 15.9996 33.2002 16.3631 32.9657 16.7887C32.7257 17.2223 32.4982 17.672 32.3515 18.1392C32.1553 18.7742 32.2376 19.3942 32.778 19.8695C33.1167 20.1655 33.4757 20.4404 33.8268 20.7212Z" fill="#11B0C8"/>
<path d="M190.458 56.4578V56.587H190.078V57.5561H189.925V56.587H189.545V56.4578" fill="#11B0C8"/>
<path d="M190.562 56.4578H190.779L191.104 57.3856L191.426 56.4578H191.641V57.5561H191.499V56.9133L191.5 56.7951V56.6298L191.178 57.5561H191.028L190.698 56.6298V56.6623L190.706 56.7856V57.5561H190.562" fill="#11B0C8"/>
</g>
<defs>
<clipPath id="clip0_81_9322">
<rect width="219.569" height="63" fill="white"/>
</clipPath>
</defs>
</svg>
